<?xml version="1.0" encoding="UTF-8"?>
<svg width="20px" height="20px" viewBox="0 0 20 20" version="1.1" xmlns="http://www.w3.org/2000/svg" xmlns:xlink="http://www.w3.org/1999/xlink">
    <title>退出</title>
    <g id="退出" stroke="none" stroke-width="1" fill="none" fill-rule="evenodd">
        <path d="M16.9703415,9.16785143 L14.8229419,7.03280016 C14.588631,6.80842736 14.4904521,6.47116611 14.5662729,6.15109801 C14.6420937,5.83102991 14.880065,5.57817441 15.1884014,5.49005783 C15.4967377,5.40194126 15.8272531,5.49233424 16.0524678,5.72637223 L19.7308108,9.39000564 C20.0818709,9.73909405 20.0904248,10.3156052 19.7513802,10.6770383 L16.0713064,14.587438 C15.7274867,14.9223863 15.1883681,14.9189098 14.8486508,14.5795537 C14.5089334,14.2401976 14.4892906,13.6855069 14.8041033,13.3215826 L17.0011706,10.9873105 L8.2419998,10.9873105 C7.7558272,10.9846435 7.3630747,10.5781259 7.3630747,10.0775809 C7.3630747,9.57703596 7.7558272,9.17051835 8.2419998,9.16785143 L16.9703415,9.16785143 Z M1.76726625,18.1822971 L12.6567288,18.1822971 C13.1290781,18.2038359 13.5012636,18.6043657 13.5012636,19.0911486 C13.5012636,19.5779314 13.1290781,19.9784612 12.6567288,20 L0.883608041,20 C0.396275871,20 0.000954576554,19.5937703 0,19.0920396 L0,0.909742426 C0,0.407274117 0.395585488,0 0.883608041,0 L12.6567037,0 C13.1428763,0.00266691947 13.5356288,0.409184535 13.5356288,0.909729513 C13.5356288,1.41027449 13.1428763,1.81679211 12.6567037,1.81945903 L1.76551032,1.81945903 L1.76551032,18.180541 L1.76726625,18.1822971 Z" id="形状" fill="#FFFFFF" fill-rule="nonzero"></path>
    </g>
</svg>