<?xml version="1.0" encoding="UTF-8"?>
<svg width="20px" height="20px" viewBox="0 0 20 20" version="1.1" xmlns="http://www.w3.org/2000/svg" xmlns:xlink="http://www.w3.org/1999/xlink">
    <title>关闭</title>
    <g id="关闭" stroke="none" stroke-width="1" fill="none" fill-rule="evenodd">
        <g fill="#FFFFFF" fill-rule="nonzero" id="形状结合">
            <path d="M10,2.84217094e-14 C15.5229498,2.84217094e-14 20,4.47705019 20,10 C20,15.5229498 15.5229498,20.0000215 10,20.0000215 C4.47705019,20.0000215 -7.10542736e-15,15.5229498 -7.10542736e-15,10 C-7.10542736e-15,4.47705019 4.47705019,2.84217094e-14 10,2.84217094e-14 Z M9.99999785,1.49999785 C5.30565378,1.49999785 1.49999785,5.30567526 1.49999785,9.99999785 C1.49999785,14.6943462 5.30565378,18.4999979 9.99999785,18.4999979 C14.6943462,18.4999979 18.4999979,14.6943462 18.4999979,9.99999785 C18.4999979,5.30565378 14.6943462,1.49999785 9.99999785,1.49999785 Z M6.1108199,6.11084139 C6.40379897,5.81786231 6.87843452,5.81786231 7.17188621,6.11084139 L7.17188621,6.11084139 L10,8.93906259 L12.8281138,6.11084139 C13.1210929,5.81786231 13.5957069,5.81786231 13.8891586,6.11084139 C14.1821162,6.40403528 14.1821162,6.87864935 13.8891586,7.17162842 L13.8891586,7.17162842 L11.0608944,10 L13.8891586,12.8283501 C14.1821162,13.121587 14.1821162,13.5961795 13.8891586,13.8891586 C13.596201,14.1821162 13.1215655,14.1821162 12.8281138,13.8891586 L12.8281138,13.8891586 L10,11.0609374 L7.17188621,13.8891586 C6.87890714,14.1821162 6.40427159,14.1821162 6.1108199,13.8891586 C5.81786231,13.5959432 5.81786231,13.1213292 6.1108199,12.8283501 L6.1108199,12.8283501 L8.93908407,10 L6.1108199,7.17162842 C5.81786231,6.87841304 5.81786231,6.40379897 6.1108199,6.11084139 Z"></path>
        </g>
    </g>
</svg>